<?xml version="1.0" encoding="UTF-8"?>
<svg xmlns="http://www.w3.org/2000/svg" xmlns:xlink="http://www.w3.org/1999/xlink" width="25px" height="25px" viewBox="0 0 25 24" version="1.1">
<g id="surface1">
<path style=" stroke:none;fill-rule:nonzero;fill:rgb(100%,100%,100%);fill-opacity:1;" d="M 1.878906 2.96875 L 22.589844 2.96875 L 22.589844 22.035156 L 1.878906 22.035156 Z M 1.878906 2.96875 "/>
<path style=" stroke:none;fill-rule:nonzero;fill:rgb(3.921569%,40.000001%,76.078433%);fill-opacity:1;" d="M 0.0234375 1.71875 C 0.0234375 0.769531 0.851562 0 1.867188 0 L 23.132812 0 C 24.148438 0 24.976562 0.769531 24.976562 1.71875 L 24.976562 22.28125 C 24.976562 23.230469 24.148438 24 23.132812 24 L 1.867188 24 C 0.851562 24 0.0234375 23.230469 0.0234375 22.28125 Z M 0.0234375 1.71875 "/>
<path style=" stroke:none;fill-rule:nonzero;fill:rgb(100%,100%,100%);fill-opacity:1;" d="M 7.605469 20.085938 L 7.605469 9.28125 L 3.875 9.28125 L 3.875 20.085938 Z M 5.742188 7.804688 C 7.042969 7.804688 7.855469 6.976562 7.855469 5.9375 C 7.828125 4.878906 7.042969 4.070312 5.765625 4.070312 C 4.488281 4.070312 3.652344 4.878906 3.652344 5.9375 C 3.652344 6.976562 4.464844 7.804688 5.71875 7.804688 Z M 9.671875 20.085938 L 13.40625 20.085938 L 13.40625 14.050781 C 13.40625 13.726562 13.429688 13.40625 13.53125 13.175781 C 13.800781 12.527344 14.414062 11.859375 15.445312 11.859375 C 16.796875 11.859375 17.335938 12.851562 17.335938 14.304688 L 17.335938 20.082031 L 21.070312 20.082031 L 21.070312 13.890625 C 21.070312 10.570312 19.226562 9.027344 16.773438 9.027344 C 14.757812 9.027344 13.875 10.109375 13.382812 10.847656 L 13.40625 10.847656 L 13.40625 9.28125 L 9.671875 9.28125 C 9.722656 10.292969 9.671875 20.085938 9.671875 20.085938 Z M 9.671875 20.085938 "/>
</g>
</svg>
