<?xml version="1.0" encoding="UTF-8"?>
<svg xmlns="http://www.w3.org/2000/svg" xmlns:xlink="http://www.w3.org/1999/xlink" width="70px" height="43px" viewBox="0 0 69 43" version="1.1">
<g id="surface1">
<path style=" stroke:none;fill-rule:nonzero;fill:rgb(0%,0%,0%);fill-opacity:1;" d="M 10.9375 0.488281 C 8.589844 1.1875 8.175781 1.605469 8.417969 3.210938 C 8.625 4.46875 8.554688 4.539062 7.347656 5.199219 C 4.554688 6.632812 3.347656 8.691406 4.65625 9.773438 C 5.105469 10.15625 5.003906 10.367188 4.035156 11.554688 C 1.863281 14.101562 0 19.023438 0 22.199219 C 0 26.351562 1.757812 30.679688 4.621094 33.644531 C 7.488281 36.613281 12.246094 38.742188 16.113281 38.742188 C 17.664062 38.742188 17.972656 38.847656 18.59375 39.753906 C 20.011719 41.742188 23.355469 42.335938 25.425781 40.976562 C 26.117188 40.523438 26.359375 40.558594 27.496094 41.183594 C 29.050781 42.023438 30.601562 42.058594 32.328125 41.359375 C 33.085938 41.046875 33.707031 40.941406 33.949219 41.148438 C 34.464844 41.570312 40.433594 41.570312 40.953125 41.117188 C 41.226562 40.871094 41.605469 40.941406 42.160156 41.324219 C 43.160156 42.058594 44.816406 42.023438 45.609375 41.324219 C 46.195312 40.765625 46.300781 40.800781 47.679688 41.742188 C 48.921875 42.617188 49.4375 42.753906 51.441406 42.753906 C 54.164062 42.753906 55.71875 41.917969 55.71875 40.382812 C 55.753906 39.054688 56.097656 38.917969 56.753906 39.894531 C 57.375 40.90625 59.238281 41.882812 60.445312 41.882812 C 60.890625 41.882812 61.824219 41.570312 62.546875 41.183594 L 63.859375 40.453125 L 64.757812 41.183594 C 67.242188 43.140625 70.207031 40.660156 68.449219 38.078125 C 67.929688 37.347656 67.929688 37.171875 68.484375 35.949219 C 69.070312 34.625 69.070312 34.554688 68.308594 33.261719 C 67.308594 31.585938 66.6875 31.0625 65.652344 31.0625 C 64.894531 31.0625 64.859375 30.957031 64.859375 28.515625 C 64.859375 25.164062 64.480469 24.78125 61.304688 24.78125 C 59.476562 24.78125 58.996094 24.675781 58.996094 24.257812 C 58.996094 23.976562 58.683594 23.417969 58.269531 23 C 57.71875 22.441406 57.304688 22.304688 56.371094 22.511719 C 55.371094 22.6875 55.199219 22.617188 55.199219 22.058594 C 55.199219 21.675781 54.992188 21.222656 54.785156 21.011719 C 54.097656 20.488281 47.023438 20.59375 46.539062 21.152344 C 46.265625 21.5 46.023438 21.535156 45.503906 21.1875 C 45.023438 20.90625 44.609375 20.871094 43.882812 21.152344 C 42.988281 21.5 42.847656 21.429688 42.332031 20.558594 C 42.019531 20 41.261719 19.300781 40.605469 18.988281 C 39.640625 18.535156 39.363281 18.113281 39.019531 16.753906 C 38.398438 14.308594 36.878906 11.273438 35.050781 8.867188 C 34.191406 7.679688 33.464844 6.421875 33.464844 6.039062 C 33.464844 5.128906 32.808594 4.539062 31.808594 4.539062 C 31.359375 4.539062 30.085938 3.980469 28.980469 3.28125 C 25.082031 0.871094 22.839844 0.246094 17.421875 0.140625 C 14.074219 0.0703125 12.074219 0.175781 10.9375 0.488281 Z M 21.425781 1.882812 C 24.738281 2.617188 28.1875 4.292969 29.703125 5.96875 L 30.980469 7.363281 L 29.359375 12.320312 L 27.703125 17.277344 L 26.53125 17.171875 C 25.875 17.101562 25.289062 16.859375 25.21875 16.648438 C 25.152344 16.402344 24.324219 15.496094 23.390625 14.589844 C 21.90625 13.160156 21.664062 12.703125 21.390625 10.925781 C 21.183594 9.808594 21.046875 8.867188 21.046875 8.796875 C 21.046875 8.761719 20.804688 8.726562 20.527344 8.726562 C 20.042969 8.726562 20.011719 9.074219 20.21875 10.855469 C 20.425781 12.601562 20.355469 12.984375 19.976562 12.84375 C 19.734375 12.773438 19.355469 11.867188 19.148438 10.820312 C 18.664062 8.167969 17.765625 7.957031 18.078125 10.574219 C 18.214844 11.726562 18.179688 12.566406 17.972656 12.703125 C 17.527344 12.984375 17.25 12.496094 16.972656 10.75 C 16.835938 9.945312 16.492188 9.214844 16.25 9.144531 C 15.871094 9.003906 15.800781 9.355469 15.972656 11.027344 L 16.179688 13.089844 L 14.835938 13.890625 C 13.007812 14.9375 11.730469 17.242188 11.488281 19.859375 L 11.28125 21.917969 L 8.726562 23.210938 C 7.347656 23.910156 6.277344 24.605469 6.382812 24.78125 C 6.484375 24.992188 7.417969 24.640625 8.417969 24.082031 C 10.558594 22.828125 11.039062 22.792969 11.039062 23.769531 C 11.039062 24.5 13.316406 30.644531 13.800781 31.167969 C 13.9375 31.34375 14.386719 30.890625 14.765625 30.226562 C 15.179688 29.527344 15.730469 28.96875 16.042969 28.96875 C 16.320312 28.96875 16.972656 29.632812 17.492188 30.46875 C 18.007812 31.273438 18.492188 32.003906 18.527344 32.074219 C 18.59375 32.179688 19.113281 31.65625 19.699219 30.957031 C 20.90625 29.457031 21.425781 29.351562 22.492188 30.433594 L 23.289062 31.238281 L 21.734375 31.480469 C 19.664062 31.832031 17.59375 33.960938 17.59375 35.742188 C 17.59375 36.402344 17.457031 37.03125 17.285156 37.171875 C 16.628906 37.554688 12.214844 36.613281 10.109375 35.601562 C 7.625 34.449219 4.898438 32.003906 3.691406 29.875 C 1.3125 25.757812 1.035156 20.558594 3 16.335938 C 4.210938 13.785156 6.347656 11.167969 8.417969 9.878906 C 14.074219 6.246094 22.148438 6.875 26.839844 11.308594 C 27.773438 12.179688 28.601562 12.914062 28.703125 12.914062 C 28.808594 12.914062 29.015625 12.496094 29.117188 12.007812 C 29.429688 10.855469 28.289062 9.5625 25.53125 7.851562 C 22.976562 6.28125 20.183594 5.515625 16.941406 5.515625 C 13.695312 5.480469 11.210938 6.179688 8.488281 7.851562 C 7.003906 8.761719 6.347656 9.003906 6.070312 8.726562 C 5.277344 7.921875 9.246094 5.585938 12.835938 4.710938 C 18.179688 3.457031 23.941406 4.78125 28.222656 8.308594 C 29.84375 9.597656 30.359375 9.492188 30.359375 7.785156 C 30.359375 6.632812 26.425781 4.082031 22.804688 2.933594 C 20.285156 2.128906 15.042969 1.917969 12.421875 2.546875 C 10.28125 3.070312 9.625 3.070312 10.109375 2.582031 C 10.589844 2.09375 14.109375 1.464844 16.558594 1.429688 C 17.972656 1.429688 20.183594 1.640625 21.425781 1.882812 Z M 32.222656 5.097656 C 32.914062 5.375 32.914062 6.074219 32.222656 6.632812 C 31.808594 7.015625 31.601562 6.980469 31.152344 6.527344 C 30.703125 6.074219 30.671875 5.863281 31.050781 5.445312 C 31.53125 4.816406 31.5 4.816406 32.222656 5.097656 Z M 33.292969 9.144531 C 34.914062 11.097656 36.121094 13.226562 36.949219 15.601562 C 37.675781 17.765625 37.742188 18.148438 37.328125 18.148438 C 37.15625 18.148438 36.777344 17.3125 36.464844 16.300781 C 35.605469 13.507812 32.601562 8.726562 31.707031 8.726562 C 31.53125 8.726562 31.324219 9.285156 31.1875 9.945312 C 31.015625 10.855469 31.117188 11.378906 31.5 11.796875 C 32.222656 12.601562 34.085938 16.71875 34.222656 17.800781 C 34.292969 18.394531 34.15625 18.707031 33.742188 18.777344 C 33.328125 18.847656 33.121094 18.671875 33.121094 18.253906 C 33.121094 17.277344 30.773438 12.496094 30.394531 12.703125 C 29.738281 13.125 29.636719 14.972656 30.152344 16.789062 C 30.464844 17.800781 30.703125 19.125 30.703125 19.71875 C 30.703125 20.3125 30.878906 20.976562 31.117188 21.222656 C 31.359375 21.464844 31.394531 21.640625 31.1875 21.640625 C 30.738281 21.640625 29.945312 20.695312 29.394531 19.546875 C 29.152344 19.058594 28.808594 18.429688 28.601562 18.113281 C 28.289062 17.695312 28.53125 16.542969 29.808594 12.632812 C 30.703125 9.914062 31.566406 7.679688 31.738281 7.679688 C 31.914062 7.679688 32.601562 8.339844 33.292969 9.144531 Z M 18.5625 14.34375 C 18.734375 15.847656 18.941406 16.160156 19.421875 15.742188 C 19.699219 15.53125 19.835938 14.9375 19.734375 14.308594 C 19.628906 13.472656 19.699219 13.296875 20.113281 13.472656 C 20.425781 13.578125 20.699219 14.101562 20.769531 14.589844 C 20.871094 15.636719 21.941406 15.949219 21.871094 14.902344 C 21.839844 14.589844 21.871094 14.308594 21.976562 14.308594 C 22.597656 14.308594 23.597656 15.289062 24.390625 16.683594 C 25.117188 17.941406 25.359375 18.742188 25.324219 20.242188 C 25.324219 22.371094 24.425781 24.535156 23.667969 24.222656 C 23.21875 24.046875 21.390625 25.898438 21.390625 26.527344 C 21.390625 27.085938 18.285156 27.328125 16.871094 26.910156 C 11.832031 25.375 10.417969 18.359375 14.488281 14.902344 C 15.800781 13.785156 16.351562 13.820312 16.492188 15.113281 C 16.664062 16.683594 17.59375 16.265625 17.59375 14.625 C 17.59375 13.054688 18.386719 12.808594 18.5625 14.34375 Z M 28.429688 19.230469 C 29.496094 20.488281 29.566406 20.941406 28.703125 20.941406 C 28.359375 20.941406 27.738281 21.1875 27.324219 21.5 C 26.875 21.8125 26.425781 21.953125 26.324219 21.847656 C 26.046875 21.570312 25.875 18.113281 26.082031 17.730469 C 26.359375 17.3125 27.394531 17.976562 28.429688 19.230469 Z M 40.570312 20.070312 C 41.8125 20.871094 41.953125 21.570312 41.125 22.441406 C 40.46875 23.105469 40.261719 23.140625 39.226562 22.757812 C 37.742188 22.199219 36.121094 22.199219 36.292969 22.757812 C 36.5 23.316406 37.191406 23.664062 38.742188 23.910156 C 39.46875 24.011719 40.539062 24.570312 41.160156 25.128906 C 42.054688 25.933594 42.261719 26.351562 42.226562 27.539062 C 42.160156 30.226562 40.125 31.550781 36.535156 31.34375 C 32.980469 31.132812 30.980469 29.351562 32.878906 28.097656 C 33.671875 27.574219 33.84375 27.574219 35.015625 28.0625 C 36.671875 28.757812 37.914062 28.757812 38.191406 28.0625 C 38.46875 27.363281 37.882812 26.980469 35.984375 26.699219 C 33.878906 26.386719 32.292969 24.921875 32.292969 23.316406 C 32.292969 21.746094 33.1875 20.347656 34.601562 19.683594 C 35.984375 19.058594 39.363281 19.265625 40.570312 20.070312 Z M 31.015625 22.722656 C 32.085938 24.675781 30.394531 27.921875 28.289062 27.921875 C 27.394531 27.921875 26.496094 27.222656 26.117188 26.175781 C 25.945312 25.722656 25.910156 25.722656 25.910156 26.175781 C 25.875 26.492188 26.117188 27.050781 26.390625 27.46875 C 26.875 28.167969 26.875 28.269531 26.253906 28.621094 C 25.390625 29.074219 23.597656 29.074219 22.734375 28.621094 C 21.90625 28.132812 21.90625 26.839844 22.734375 25.792969 C 23.253906 25.128906 23.667969 24.992188 24.804688 25.09375 C 26.011719 25.164062 26.21875 25.09375 26.21875 24.5 C 26.21875 24.117188 26.632812 23.28125 27.117188 22.6875 C 27.875 21.777344 28.253906 21.605469 29.289062 21.710938 C 30.1875 21.777344 30.636719 22.058594 31.015625 22.722656 Z M 48.921875 22.234375 C 48.851562 22.582031 48.507812 22.859375 48.128906 22.859375 C 47.746094 22.859375 47.402344 22.582031 47.335938 22.234375 C 47.230469 21.777344 47.4375 21.640625 48.128906 21.640625 C 48.816406 21.640625 49.023438 21.777344 48.921875 22.234375 Z M 51.679688 25.722656 L 51.785156 29.667969 L 50.921875 29.667969 C 49.816406 29.667969 49.679688 29.144531 49.714844 25.582031 C 49.75 22.023438 49.886719 21.570312 50.851562 21.710938 C 51.542969 21.8125 51.578125 22.023438 51.679688 25.722656 Z M 54.335938 25.652344 L 54.335938 29.492188 L 53.476562 29.492188 C 52.613281 29.492188 52.613281 29.457031 52.507812 26.039062 C 52.40625 21.988281 52.507812 21.535156 53.542969 21.710938 C 54.304688 21.8125 54.335938 21.917969 54.335938 25.652344 Z M 45.4375 22.582031 C 45.539062 22.929688 45.851562 23.453125 46.125 23.769531 C 46.507812 24.257812 46.507812 24.398438 46.058594 24.78125 C 45.367188 25.375 45.332031 28.132812 46.058594 28.410156 C 47.09375 28.792969 46.4375 30.015625 45.160156 30.015625 C 44.296875 30.015625 43.46875 28.550781 43.46875 27.050781 C 43.46875 26.175781 43.261719 25.128906 43.054688 24.746094 C 42.710938 24.152344 42.710938 23.941406 43.054688 23.839844 C 43.261719 23.734375 43.46875 23.382812 43.46875 23.070312 C 43.46875 22.722656 43.574219 22.335938 43.710938 22.234375 C 44.160156 21.777344 45.230469 21.988281 45.4375 22.582031 Z M 25.875 23.417969 C 25.632812 23.804688 25.390625 24.082031 25.324219 23.976562 C 25.082031 23.734375 25.566406 22.6875 25.910156 22.6875 C 26.117188 22.6875 26.082031 23 25.875 23.417969 Z M 42.089844 23.523438 C 42.089844 23.628906 41.953125 23.804688 41.746094 23.910156 C 41.574219 24.011719 41.398438 23.941406 41.398438 23.769531 C 41.398438 23.558594 41.574219 23.382812 41.746094 23.382812 C 41.953125 23.382812 42.089844 23.453125 42.089844 23.523438 Z M 57.71875 23.875 C 57.960938 24.535156 57.683594 24.78125 56.683594 24.78125 C 55.925781 24.78125 55.613281 24.117188 56.132812 23.628906 C 56.511719 23.210938 57.546875 23.382812 57.71875 23.875 Z M 48.988281 26.664062 C 48.988281 28.726562 48.851562 29.667969 48.574219 29.773438 C 47.507812 30.121094 47.265625 29.597656 47.265625 26.664062 C 47.265625 23.769531 47.265625 23.734375 48.128906 23.734375 C 48.988281 23.734375 48.988281 23.769531 48.988281 26.664062 Z M 15.523438 27.363281 C 16.628906 27.992188 16.664062 28.0625 15.9375 28.203125 C 15.523438 28.269531 14.972656 28.621094 14.730469 29.003906 C 14.523438 29.351562 14.214844 29.667969 14.109375 29.667969 C 13.902344 29.667969 13.179688 28.027344 11.800781 24.433594 C 11.695312 24.152344 12.214844 24.535156 12.9375 25.304688 C 13.695312 26.070312 14.871094 27.015625 15.523438 27.363281 Z M 57.753906 26.039062 C 58.0625 26.875 57.996094 30.820312 57.648438 31.34375 C 57.476562 31.621094 57.0625 31.761719 56.71875 31.691406 C 56.164062 31.585938 56.0625 31.203125 55.960938 29.003906 C 55.890625 27.574219 55.925781 26.210938 56.027344 25.933594 C 56.269531 25.304688 57.511719 25.375 57.753906 26.039062 Z M 63.273438 25.933594 C 63.6875 26.246094 63.964844 27.015625 64.101562 28.203125 C 64.308594 30.574219 63.996094 31.761719 63.136719 31.761719 C 62.339844 31.761719 62.375 31.867188 62.238281 29.351562 C 62.132812 27.222656 61.71875 26.527344 60.925781 27.1875 C 60.617188 27.46875 60.375 28.375 60.304688 29.597656 C 60.203125 31.308594 60.097656 31.585938 59.511719 31.585938 C 58.890625 31.585938 58.824219 31.308594 58.71875 28.726562 L 58.617188 25.863281 L 60.097656 25.722656 C 60.925781 25.652344 61.824219 25.582031 62.132812 25.546875 C 62.410156 25.515625 62.929688 25.6875 63.273438 25.933594 Z M 32.773438 26.527344 C 32.773438 26.664062 32.464844 27.050781 32.085938 27.398438 C 30.464844 28.898438 31.636719 31.414062 34.363281 32.179688 C 35.15625 32.390625 35.5 32.632812 35.191406 32.738281 C 34.914062 32.808594 34.429688 33.121094 34.121094 33.367188 C 33.671875 33.785156 33.394531 33.75 32.222656 33.121094 C 31.359375 32.667969 30.464844 32.460938 29.671875 32.5625 C 28.601562 32.703125 28.359375 32.5625 27.566406 31.445312 C 26.703125 30.191406 26.667969 30.121094 27.289062 29.386719 C 27.601562 28.96875 28.222656 28.621094 28.667969 28.621094 C 29.117188 28.621094 29.945312 28.0625 30.671875 27.292969 C 31.773438 26.105469 32.773438 25.722656 32.773438 26.527344 Z M 21.492188 28.269531 C 21.632812 28.757812 21.492188 28.96875 21.078125 28.96875 C 20.769531 28.96875 20.320312 29.144531 20.078125 29.386719 C 19.492188 29.980469 19.5625 29.25 20.21875 28.339844 C 20.871094 27.398438 21.253906 27.363281 21.492188 28.269531 Z M 19.113281 29.039062 L 18.5625 30.15625 L 18.078125 29.285156 C 17.421875 28.0625 17.492188 27.921875 18.628906 27.921875 L 19.699219 27.921875 Z M 46.507812 30.855469 C 48.230469 30.609375 48.335938 30.921875 46.921875 32.285156 L 45.917969 33.261719 L 44.882812 32.144531 C 43.609375 30.785156 42.433594 30.714844 41.332031 32.039062 C 40.882812 32.5625 40.191406 33.019531 39.742188 33.019531 C 38.640625 33.019531 38.8125 32.527344 40.125 31.972656 C 40.710938 31.726562 41.605469 31.097656 42.054688 30.609375 L 42.847656 29.738281 L 43.953125 30.398438 C 44.78125 30.921875 45.367188 31.027344 46.507812 30.855469 Z M 26.566406 32.597656 C 26.566406 32.667969 25.875 32.390625 25.082031 31.972656 C 24.21875 31.550781 23.632812 31.0625 23.734375 30.820312 C 23.839844 30.503906 24.324219 30.714844 25.21875 31.445312 C 25.945312 32.039062 26.566406 32.5625 26.566406 32.597656 Z M 54.0625 32.144531 C 56.785156 33.472656 57.304688 36.367188 55.164062 38.183594 C 54.304688 38.917969 53.75 39.089844 52.199219 39.089844 C 49.957031 39.089844 48.988281 38.460938 48.988281 36.996094 C 48.988281 36.472656 49.335938 35.742188 49.816406 35.285156 C 50.472656 34.660156 50.921875 34.554688 52.128906 34.660156 C 53.648438 34.796875 53.648438 34.796875 53.648438 36.160156 C 53.648438 37.871094 54.613281 38.113281 54.785156 36.4375 C 54.957031 34.832031 53.957031 33.820312 52.027344 33.609375 C 50.578125 33.4375 50.300781 33.507812 49.335938 34.484375 C 48.609375 35.25 48.300781 35.878906 48.300781 36.71875 C 48.300781 38.984375 50.128906 40.277344 53.128906 40.066406 C 55.164062 39.929688 55.234375 40.625 53.269531 41.394531 C 51.886719 41.917969 51.441406 41.953125 50.058594 41.570312 C 49.195312 41.359375 48.023438 40.695312 47.4375 40.136719 C 46.574219 39.265625 46.402344 38.777344 46.300781 36.890625 C 46.160156 34.902344 46.230469 34.589844 47.128906 33.542969 C 48.921875 31.378906 51.441406 30.855469 54.0625 32.144531 Z M 61.753906 32.074219 C 61.753906 32.25 62.066406 32.460938 62.445312 32.5625 C 62.824219 32.667969 63.136719 32.914062 63.136719 33.15625 C 63.136719 33.367188 62.996094 33.472656 62.824219 33.367188 C 62.6875 33.261719 62.132812 33.019531 61.617188 32.808594 C 61.097656 32.632812 60.789062 32.320312 60.890625 32.109375 C 61.167969 31.691406 61.753906 31.65625 61.753906 32.074219 Z M 44.675781 33.578125 C 45.265625 34.691406 45.296875 35.007812 44.917969 35.601562 C 44.332031 36.542969 44.402344 37.902344 45.058594 38.917969 C 45.746094 39.964844 45.230469 40.835938 43.953125 40.835938 C 42.574219 40.835938 41.746094 39.683594 41.746094 37.730469 C 41.746094 36.753906 41.605469 35.878906 41.398438 35.773438 C 40.847656 35.425781 40.984375 34.484375 41.746094 33.226562 C 42.675781 31.691406 43.746094 31.832031 44.675781 33.578125 Z M 67.136719 33.472656 C 67.964844 34.761719 68 34.902344 67.480469 35.671875 C 66.792969 36.648438 66.792969 37.660156 67.449219 38.53125 C 68.449219 39.859375 67.929688 40.835938 66.238281 40.835938 C 65.171875 40.835938 64.171875 39.195312 64.171875 37.378906 C 64.171875 36.507812 64.03125 35.566406 63.859375 35.285156 C 63.375 34.519531 64.6875 32.109375 65.550781 32.109375 C 65.964844 32.109375 66.585938 32.667969 67.136719 33.472656 Z M 24.976562 33.191406 C 26.632812 34.519531 25.804688 35.671875 23.425781 35.355469 C 22.21875 35.183594 22.078125 35.25 21.871094 36.089844 C 21.527344 37.519531 22.253906 38.113281 23.976562 37.835938 C 25.152344 37.660156 25.460938 37.730469 25.667969 38.21875 C 26.117188 39.40625 24.390625 40.835938 22.527344 40.835938 C 20.632812 40.835938 18.628906 38.671875 18.628906 36.648438 C 18.628906 33.332031 22.492188 31.203125 24.976562 33.191406 Z M 58.304688 32.984375 C 57.820312 33.542969 56.925781 33.679688 56.925781 33.191406 C 56.925781 32.84375 57.511719 32.527344 58.269531 32.496094 C 58.648438 32.460938 58.648438 32.5625 58.304688 32.984375 Z M 32.742188 34.691406 C 33.429688 35.425781 33.636719 35.949219 33.636719 37.207031 C 33.636719 38.566406 33.464844 38.953125 32.5 39.824219 C 29.980469 42.128906 26.21875 40.417969 26.21875 36.960938 C 26.21875 36.195312 26.566406 35.53125 27.425781 34.660156 C 28.566406 33.507812 28.773438 33.4375 30.222656 33.609375 C 31.324219 33.714844 32.121094 34.066406 32.742188 34.691406 Z M 39.984375 34.414062 C 40.917969 35.601562 41.019531 39.441406 40.15625 40.277344 C 39.535156 40.941406 39.46875 40.941406 38.605469 40.488281 C 38.121094 40.207031 37.949219 39.753906 37.949219 38.742188 C 37.949219 38.007812 37.847656 37.171875 37.742188 36.855469 C 37.363281 35.84375 36.914062 36.683594 36.914062 38.394531 C 36.914062 39.753906 36.777344 40.207031 36.257812 40.488281 C 35.398438 40.941406 35.328125 40.941406 34.707031 40.277344 C 34.292969 39.894531 34.15625 39.054688 34.15625 37.242188 C 34.15625 35.84375 34.292969 34.554688 34.429688 34.308594 C 34.671875 33.960938 35.8125 33.714844 38.363281 33.578125 C 38.984375 33.542969 39.503906 33.785156 39.984375 34.414062 Z M 61.894531 33.890625 C 63.757812 34.761719 63.273438 36.125 61.132812 36.125 C 59.960938 36.125 59.859375 36.195312 59.859375 37.171875 C 59.859375 38.148438 59.960938 38.21875 61.132812 38.21875 C 62.859375 38.21875 63.445312 38.847656 62.617188 39.789062 C 61.339844 41.21875 58.890625 41.011719 57.546875 39.300781 C 56.890625 38.496094 56.71875 36.265625 57.269531 35.25 C 58.027344 33.785156 60.273438 33.15625 61.894531 33.890625 Z M 61.894531 33.890625 "/>
<path style=" stroke:none;fill-rule:nonzero;fill:rgb(0%,0%,0%);fill-opacity:1;" d="M 12.628906 12.390625 C 10.109375 13.4375 8.210938 15.253906 7.210938 17.589844 C 6.417969 19.476562 5.863281 23.941406 6.453125 23.699219 C 6.625 23.628906 7.695312 23.105469 8.832031 22.546875 L 10.867188 21.535156 L 10.902344 19.894531 C 10.9375 17.660156 12.109375 15.390625 13.972656 13.960938 C 15.421875 12.84375 16.042969 11.519531 15.109375 11.519531 C 14.871094 11.519531 13.730469 11.902344 12.628906 12.390625 Z M 12.628906 12.390625 "/>
<path style=" stroke:none;fill-rule:nonzero;fill:rgb(0%,0%,0%);fill-opacity:1;" d="M 23.839844 14.34375 C 24.839844 15.390625 25.773438 16.195312 25.839844 16.160156 C 26.082031 15.984375 23.425781 13.261719 22.632812 12.84375 C 22.253906 12.632812 22.804688 13.332031 23.839844 14.34375 Z M 23.839844 14.34375 "/>
<path style=" stroke:none;fill-rule:nonzero;fill:rgb(0%,0%,0%);fill-opacity:1;" d="M 18.699219 18.917969 C 18.457031 19.160156 18.285156 19.789062 18.285156 20.347656 C 18.285156 21.1875 18.421875 21.324219 19.078125 21.222656 C 19.699219 21.152344 19.835938 20.90625 19.835938 19.929688 C 19.835938 18.636719 19.390625 18.21875 18.699219 18.917969 Z M 19.320312 19.195312 C 19.320312 19.371094 19.148438 19.546875 18.941406 19.546875 C 18.769531 19.546875 18.699219 19.371094 18.800781 19.195312 C 18.90625 18.988281 19.078125 18.847656 19.183594 18.847656 C 19.25 18.847656 19.320312 18.988281 19.320312 19.195312 Z M 19.320312 19.195312 "/>
<path style=" stroke:none;fill-rule:nonzero;fill:rgb(0%,0%,0%);fill-opacity:1;" d="M 21.976562 19.089844 C 21.597656 19.441406 21.699219 21.222656 22.078125 21.464844 C 22.699219 21.847656 23.460938 20.941406 23.460938 19.859375 C 23.460938 19.125 23.289062 18.847656 22.839844 18.847656 C 22.492188 18.847656 22.078125 18.953125 21.976562 19.089844 Z M 22.769531 19.546875 C 22.769531 19.71875 22.632812 19.894531 22.425781 19.894531 C 22.253906 19.894531 22.078125 19.71875 22.078125 19.546875 C 22.078125 19.335938 22.253906 19.195312 22.425781 19.195312 C 22.632812 19.195312 22.769531 19.335938 22.769531 19.546875 Z M 22.769531 19.546875 "/>
<path style=" stroke:none;fill-rule:nonzero;fill:rgb(0%,0%,0%);fill-opacity:1;" d="M 14.488281 22.304688 C 14.488281 24.257812 18.699219 26.457031 20.839844 25.617188 C 21.90625 25.199219 21.355469 24.78125 19.769531 24.78125 C 17.734375 24.78125 16.59375 24.222656 15.699219 22.792969 C 14.902344 21.5 14.488281 21.359375 14.488281 22.304688 Z M 14.488281 22.304688 "/>
<path style=" stroke:none;fill-rule:nonzero;fill:rgb(0%,0%,0%);fill-opacity:1;" d="M 50.820312 36.507812 C 50.714844 36.789062 50.820312 37.242188 51.027344 37.449219 C 51.371094 37.765625 51.578125 37.730469 51.921875 37.207031 C 52.199219 36.855469 52.335938 36.402344 52.234375 36.265625 C 51.921875 35.742188 51.058594 35.914062 50.820312 36.507812 Z M 50.820312 36.507812 "/>
<path style=" stroke:none;fill-rule:nonzero;fill:rgb(0%,0%,0%);fill-opacity:1;" d="M 29.289062 36.507812 C 28.84375 37.066406 29.152344 38.042969 29.945312 38.324219 C 30.566406 38.53125 31.1875 37.03125 30.671875 36.4375 C 30.152344 35.808594 29.878906 35.808594 29.289062 36.507812 Z M 29.289062 36.507812 "/>
</g>
</svg>
